<?xml version="1.0" standalone="no"?>
<!DOCTYPE svg PUBLIC "-//W3C//DTD SVG 20010904//EN"
 "http://www.w3.org/TR/2001/REC-SVG-20010904/DTD/svg10.dtd">
<svg version="1.0" xmlns="http://www.w3.org/2000/svg"
 width="64.000000pt" height="64.000000pt" viewBox="0 0 64.000000 64.000000"
 preserveAspectRatio="xMidYMid meet">

<g transform="translate(0.000000,64.000000) scale(0.100000,-0.100000)"
fill="#000000" stroke="none">
<path d="M105 536 c-25 -25 -25 -26 -25 -216 0 -257 -17 -240 240 -240 189 0
191 0 215 25 23 22 25 31 25 123 0 98 -9 126 -36 115 -11 -4 -14 -28 -14 -97
0 -58 -4 -96 -12 -104 -17 -17 -339 -17 -356 0 -17 17 -17 339 0 356 8 8 58
12 161 12 148 0 148 0 145 23 -3 22 -6 22 -161 25 -156 2 -158 2 -182 -22z"/>
<path d="M433 418 l-113 -112 -33 32 c-36 35 -61 41 -71 16 -7 -18 81 -114
105 -114 7 0 71 58 141 128 95 94 127 133 122 145 -12 33 -41 15 -151 -95z"/>
</g>
</svg>
