<svg width="220" height="220" viewBox="0 0 220 220" fill="none" xmlns="http://www.w3.org/2000/svg">
<path d="M113.063 220L112.991 219.923C172.376 218.334 220 169.745 220 109.998C220 49.2462 170.754 0 109.998 0C50.2504 0 1.66575 47.6433 0.0773243 107.009L0 106.932V220H113.063Z" fill="#FFF250"/>
<path d="M45.9177 70.1802V114.709H37.71V70.1802H45.9177Z" fill="black"/>
<path d="M134.776 98.0917V114.71H126.569V98.0917C126.569 93.4519 124.121 91.5062 120.486 91.5062C118.43 91.4631 116.438 92.2195 114.929 93.6161C114.633 93.8886 114.403 94.225 114.256 94.5998C114.11 94.9746 114.051 95.378 114.084 95.779C114.127 96.3584 114.151 96.9522 114.151 97.5895V114.71H105.943V97.5895C105.943 93.0126 103.501 91.5062 100.362 91.5062C99.2102 91.4895 98.0679 91.7195 97.012 92.1809C95.9561 92.6422 95.0107 93.3242 94.2401 94.1809C93.7809 94.672 93.5258 95.3191 93.5258 95.9914V114.71H85.3181V84.7759H93.5258V86.7842C95.5343 85.0895 97.8711 84.0227 101.429 84.0227C105.379 84.0227 108.705 85.278 110.965 87.7837C113.728 85.2906 117.339 83.9455 121.06 84.0227C129.133 84.042 134.776 89.0584 134.776 98.0917Z" fill="black"/>
<path d="M138.469 75.1343C138.459 74.4784 138.583 73.8275 138.833 73.2212C139.083 72.6149 139.455 72.0659 139.924 71.6078C140.394 71.1496 140.951 70.792 141.564 70.5566C142.176 70.3212 142.83 70.2129 143.485 70.2386C144.139 70.2211 144.789 70.335 145.398 70.5733C146.007 70.8116 146.562 71.1695 147.03 71.6259C147.498 72.0823 147.87 72.628 148.123 73.2306C148.377 73.8332 148.507 74.4805 148.506 75.1343C148.5 75.7829 148.365 76.4239 148.108 77.0195C147.851 77.6152 147.478 78.1536 147.01 78.6032C146.543 79.0529 145.99 79.4045 145.385 79.6379C144.779 79.8713 144.133 79.9816 143.485 79.9623C140.665 79.9623 138.469 77.8911 138.469 75.1343Z" fill="black"/>
<path d="M147.629 84.7954H139.412V114.71H147.629V84.7954Z" fill="black"/>
<path d="M182.354 98.4584V114.7H174.146V98.9605C174.146 94.0648 171.703 91.4963 167.387 91.4963C165.393 91.4963 163.205 92.5197 161.255 94.4896C160.762 94.9846 160.486 95.655 160.487 96.3534V114.7H152.28V84.7661H160.487V87.0254C162.931 85.038 165.994 83.9718 169.144 84.0129C177.086 84.0418 182.354 89.6858 182.354 98.4584Z" fill="black"/>
<path d="M58.722 84.8384V101.939C58.722 106.874 61.0218 109.341 65.6213 109.341C70.2209 109.341 72.5206 106.874 72.5206 101.939V84.8384H80.6463V102.094C80.6958 104.202 80.3402 106.3 79.5986 108.274C78.8176 109.95 77.6126 111.392 76.103 112.46C73.3575 114.478 69.8651 115.487 65.626 115.487C61.387 115.487 57.9075 114.478 55.1877 112.46C53.6541 111.394 52.4217 109.951 51.6101 108.269C50.9406 106.878 50.6043 104.819 50.6011 102.089V84.8335L58.722 84.8384Z" fill="black"/>
<path d="M118.275 134.278C118.275 143.499 111.753 149.954 102.405 149.954C93.0584 149.954 86.4729 143.499 86.4729 134.278C86.4729 125.056 92.9956 118.538 102.405 118.538C111.815 118.538 118.275 125.013 118.275 134.278ZM110.068 134.278C110.068 129.387 106.934 125.998 102.415 125.998C97.8963 125.998 94.6905 129.377 94.6905 134.278C94.6905 139.178 97.8287 142.485 102.415 142.485C107.002 142.485 110.058 139.106 110.058 134.278H110.068Z" fill="black"/>
<path d="M169.2 143.311C172.338 143.311 174.511 142.495 174.511 140.801C174.511 139.608 173.511 138.604 171.44 138.227L164.98 137.102C160.592 136.349 156.135 133.964 156.135 128.32C156.135 122.174 161.345 118.476 168.93 118.476C174.322 118.476 181.483 119.977 182.163 128.571H174.598C174.41 125.872 171.841 124.998 168.954 124.998C165.82 124.998 164.314 126.061 164.314 127.504C164.314 128.634 165.13 129.952 168.012 130.454L173.41 131.328C178.05 132.144 182.376 134.278 182.376 140.047C182.376 146.696 176.582 149.955 169.017 149.955C162.431 149.955 155.783 147.512 155.16 138.792L162.745 138.855C163.242 142.244 165.69 143.311 169.2 143.311Z" fill="black"/>
<path d="M130.123 119.315V136.416C130.123 141.357 132.423 143.826 137.022 143.823C141.622 143.819 143.922 141.351 143.922 136.416V119.315H152.047V136.571C152.094 138.679 151.739 140.776 151 142.751C150.218 144.43 149.01 145.875 147.495 146.941C144.752 148.963 141.261 149.974 137.022 149.974C132.783 149.974 129.304 148.963 126.584 146.941C125.049 145.877 123.817 144.433 123.007 142.751C122.331 141.364 121.994 139.303 121.997 136.571V119.315H130.123Z" fill="black"/>
</svg>
