<?xml version="1.0" standalone="no"?>
<!DOCTYPE svg PUBLIC "-//W3C//DTD SVG 20010904//EN"
 "http://www.w3.org/TR/2001/REC-SVG-20010904/DTD/svg10.dtd">
<svg version="1.0" xmlns="http://www.w3.org/2000/svg"
 width="64.000000pt" height="64.000000pt" viewBox="0 0 64.000000 64.000000"
 preserveAspectRatio="xMidYMid meet">

<g transform="translate(0.000000,64.000000) scale(0.100000,-0.100000)"
fill="#000000" stroke="none">
<path d="M293 620 c-42 -17 -262 -170 -273 -189 -5 -11 -10 -36 -10 -56 0 -32
3 -36 22 -33 18 2 24 11 28 38 5 32 16 42 128 118 68 45 127 82 132 82 5 0 64
-37 132 -82 l123 -83 3 -164 c2 -112 -1 -168 -9 -177 -7 -9 -32 -14 -70 -14
l-59 0 0 81 c0 44 -5 89 -10 100 -35 64 -185 64 -220 0 -5 -11 -10 -56 -10
-100 l0 -81 -59 0 c-36 0 -63 5 -69 13 -6 7 -12 49 -14 92 -3 74 -5 80 -25 83
-22 3 -23 1 -23 -83 0 -99 9 -121 55 -141 42 -17 156 -19 173 -2 8 8 12 46 12
103 0 57 4 95 12 103 16 16 100 16 116 0 8 -8 12 -46 12 -103 0 -57 4 -95 12
-103 17 -17 131 -15 173 2 18 8 38 23 44 34 17 33 15 353 -3 378 -16 23 -251
179 -281 187 -11 3 -30 2 -42 -3z"/>
</g>
</svg>
